<?xml version="1.0" standalone="no"?>
<!DOCTYPE svg PUBLIC "-//W3C//DTD SVG 20010904//EN"
 "http://www.w3.org/TR/2001/REC-SVG-20010904/DTD/svg10.dtd">
<svg version="1.0" xmlns="http://www.w3.org/2000/svg"
 width="2000.000000pt" height="2000.000000pt" viewBox="0 0 2000.000000 2000.000000"
 preserveAspectRatio="xMidYMid meet">

<g transform="translate(0.000000,2000.000000) scale(0.100000,-0.100000)"
fill="#000000" stroke="none">
<path d="M6025 18088 c-19 -18 -58 -53 -87 -78 -28 -25 -74 -65 -102 -90 -28
-25 -69 -58 -92 -73 -41 -28 -121 -106 -94 -93 8 4 5 -1 -8 -11 -12 -10 -31
-42 -42 -71 -19 -50 -20 -77 -20 -554 l0 -501 -792 7 c-689 6 -799 5 -841 -8
-63 -19 -130 -63 -121 -79 4 -7 3 -9 -1 -4 -10 9 -45 -21 -45 -39 0 -7 -4 -14
-10 -16 -5 -1 -19 -30 -31 -63 -21 -59 -21 -77 -26 -955 -5 -895 -5 -895 16
-951 27 -71 91 -137 167 -175 58 -28 63 -29 243 -32 l183 -4 -7 -400 c-5 -294
-4 -399 4 -394 6 4 11 11 11 15 0 5 18 28 40 52 22 24 38 50 35 57 -3 7 -1 10
4 7 6 -3 18 6 28 20 10 14 34 44 53 67 19 23 34 45 33 50 -2 4 1 8 5 8 8 0
122 134 122 143 0 2 18 24 40 48 22 24 38 50 35 57 -3 7 -1 11 4 7 5 -3 19 7
30 22 11 16 24 33 29 38 4 6 23 30 42 55 19 25 37 47 40 50 3 3 22 26 43 52
l38 48 124 -7 c102 -5 123 -4 123 8 -1 8 0 87 0 177 2 140 4 162 18 162 11 0
13 6 9 19 -3 12 4 36 20 63 14 23 28 50 31 58 5 14 36 37 93 69 15 8 29 18 32
23 17 26 139 30 714 24 325 -3 802 -6 1061 -7 260 0 474 -3 477 -6 3 -2 306
-7 674 -9 711 -4 768 -6 832 -25 42 -12 51 -23 29 -33 -7 -3 -4 -4 8 -1 28 7
111 -58 112 -89 0 -5 6 -12 12 -16 10 -6 9 -15 -3 -39 -8 -17 -11 -31 -6 -31
5 0 11 11 15 25 3 14 10 22 15 19 6 -3 7 -15 3 -26 -4 -14 -2 -18 5 -14 11 7
12 2 17 -59 6 -92 -2 -1736 -9 -1812 -4 -32 -2 -53 4 -53 6 0 7 -6 2 -12 -4
-7 -6 -20 -5 -29 2 -9 -4 -19 -12 -22 -9 -4 -13 -13 -10 -21 9 -23 -39 -98
-93 -146 -39 -34 -53 -41 -75 -36 -16 3 -28 1 -28 -5 0 -6 5 -7 10 -4 6 3 10
2 10 -3 0 -10 -35 -18 -115 -29 -22 -3 -83 -4 -135 -3 -52 2 -120 4 -150 4
-36 1 -59 6 -67 16 -8 10 -12 11 -13 3 0 -6 5 -15 10 -18 6 -4 8 -11 4 -16 -3
-5 0 -16 6 -24 9 -11 9 -15 1 -15 -7 0 -10 -32 -9 -102 l2 -103 6 85 6 85 2
-109 c2 -82 -2 -113 -12 -125 -11 -13 -15 -65 -18 -239 -1 -123 0 -208 4 -190
4 18 8 120 8 226 0 120 4 192 10 192 13 0 13 -157 0 -332 -8 -105 -8 -143 1
-160 11 -21 11 -22 -4 -9 -10 7 -17 18 -17 24 0 5 -8 17 -17 26 -27 25 -59 65
-46 58 7 -5 9 0 6 14 -3 11 -11 18 -19 15 -7 -3 -20 6 -28 19 -15 23 -15 24 1
20 10 -3 6 1 -10 8 -15 7 -35 24 -44 36 -13 20 -13 25 -2 33 11 8 11 9 -2 5
-21 -7 -50 28 -43 50 4 14 3 15 -4 5 -14 -20 -85 68 -76 94 4 14 3 15 -4 6 -7
-11 -15 -6 -33 20 -13 18 -47 63 -76 100 -30 36 -53 70 -52 75 4 22 -2 32 -18
26 -12 -5 -15 -2 -10 10 4 12 2 14 -10 10 -11 -4 -14 -3 -9 5 4 7 1 15 -7 18
-8 3 -33 31 -56 62 -77 107 -38 97 -361 100 -157 1 -391 4 -520 7 -129 2 -352
6 -495 8 -169 3 -204 2 -100 -2 l160 -7 -170 -2 c-93 -1 -187 2 -208 7 -23 6
-39 5 -43 -1 -3 -5 -12 -7 -20 -4 -12 5 -14 -258 -14 -1804 0 -996 1 -1810 3
-1809 1 0 58 14 127 32 l125 32 3 468 2 467 180 0 180 0 0 113 0 113 -70 12
c-133 23 -243 100 -295 205 -81 167 -42 475 112 877 30 80 57 153 60 163 3 9
9 17 14 17 5 0 92 -35 195 -77 182 -74 188 -76 228 -64 141 42 152 43 251 38
139 -6 144 -9 102 -61 -76 -94 -137 -242 -162 -400 -22 -132 -19 -296 5 -296
4 0 23 26 43 58 36 58 150 178 201 211 35 24 66 15 124 -34 50 -43 66 -82 59
-143 -11 -99 -34 -150 -95 -209 -43 -42 -130 -83 -177 -83 -13 0 -26 -4 -29
-9 -5 -8 57 -126 186 -356 58 -103 109 -199 193 -360 37 -71 73 -135 79 -142
6 -6 115 -52 243 -103 l232 -92 193 13 c185 11 891 7 993 -7 l40 -6 -3 1274
c-1 903 1 1289 9 1327 14 70 73 132 141 149 35 9 567 12 2097 12 l2051 0 0
370 0 370 1330 0 c1316 0 1330 0 1384 21 69 25 143 91 181 161 l30 53 3 1590
2 1590 -21 58 c-28 74 -98 148 -176 185 l-58 27 -1337 3 -1337 2 -3 633 -3
632 -34 63 c-57 105 -153 173 -267 188 l-52 6 -10 -63 c-6 -35 -16 -102 -23
-149 -15 -110 -18 -115 -51 -87 -14 12 -94 81 -178 152 -84 72 -155 130 -160
130 -4 0 -45 -40 -91 -90 -193 -209 -280 -304 -340 -371 -35 -39 -145 -158
-244 -265 -99 -107 -223 -242 -275 -299 -52 -57 -122 -132 -154 -167 -32 -35
-66 -72 -75 -82 -9 -10 -60 -66 -115 -125 l-99 -106 -552 0 -552 0 -39 43
c-38 42 -68 78 -335 397 -403 482 -561 670 -596 709 l-39 44 -139 -159 c-77
-87 -239 -271 -360 -408 -121 -137 -276 -313 -345 -391 -69 -78 -188 -213
-265 -300 -77 -87 -160 -182 -185 -211 -25 -29 -50 -52 -56 -51 -7 1 -74 61
-149 132 -75 72 -169 160 -207 196 -50 47 -68 70 -62 80 6 11 546 611 839 934
85 93 180 200 349 389 l99 111 -304 3 c-167 1 -754 1 -1304 0 l-1000 -3 -57
-27 c-76 -35 -142 -98 -175 -167 l-28 -56 -5 -515 -5 -515 -90 -3 c-49 -2
-126 -1 -170 3 l-80 6 5 697 c5 718 7 740 46 783 28 31 5 21 -31 -13z m10589
-1878 c73 -28 139 -99 161 -172 14 -48 15 -212 13 -1529 l-3 -1474 -24 -45
c-29 -55 -82 -105 -141 -133 l-45 -22 -3155 -3 c-3549 -3 -3232 -10 -3327 73
-31 28 -59 64 -74 97 l-24 53 0 1470 c0 1147 3 1479 12 1511 21 67 75 128 144
163 l62 31 3173 0 c3165 0 3173 0 3228 -20z m-11658 -609 c64 -29 97 -80 102
-156 7 -100 -37 -164 -130 -194 -82 -27 -199 28 -229 106 -12 33 -11 115 2
150 35 93 158 138 255 94z m813 -11 c72 -36 108 -107 98 -192 -11 -93 -88
-158 -187 -158 -95 0 -157 49 -181 143 -20 82 17 169 89 207 50 26 131 26 181
0z m797 1 c116 -53 145 -212 55 -303 -113 -113 -304 -46 -319 112 -9 92 36
167 115 195 53 19 101 18 149 -4z m2811 -1773 c-2 -35 -3 -7 -3 62 0 69 1 97
3 63 2 -35 2 -91 0 -125z"/>
<path d="M10194 16189 c-45 -13 -119 -82 -146 -137 l-23 -47 0 -1471 0 -1470
30 -59 c33 -64 97 -117 165 -135 25 -7 1069 -9 3191 -8 l3154 3 45 23 c58 31
86 57 118 112 l27 45 3 1470 c3 1643 8 1526 -69 1605 -23 23 -59 50 -82 61
-41 18 -123 19 -3212 18 -1843 -1 -3183 -5 -3201 -10z m3451 -744 c111 -27
243 -89 317 -147 26 -21 48 -36 48 -34 0 3 31 -27 68 -67 112 -119 181 -232
225 -373 166 -524 -141 -1075 -670 -1206 -210 -52 -493 -18 -662 78 -227 130
-369 292 -451 514 -40 110 -55 201 -54 330 1 207 61 390 183 560 37 52 159
171 212 208 228 156 512 206 784 137z"/>
<path d="M13070 14534 c0 -418 0 -425 20 -419 10 3 56 24 102 47 88 43 635
303 728 346 l55 25 -75 36 c-491 236 -820 391 -826 391 -2 0 -4 -192 -4 -426z"/>
<path d="M10212 17881 c7 -10 104 -126 215 -257 205 -244 674 -800 747 -887
23 -27 57 -67 76 -89 l35 -40 435 443 c239 243 458 465 485 493 28 28 117 120
199 204 l150 152 -1178 0 c-1144 0 -1177 -1 -1164 -19z"/>
<path d="M5578 14883 c34 -2 90 -2 125 0 34 2 6 3 -63 3 -69 0 -97 -1 -62 -3z"/>
<path d="M9050 14840 c-12 -8 -10 -10 10 -9 14 1 36 5 50 9 23 7 22 8 -10 9
-19 0 -42 -4 -50 -9z"/>
<path d="M9088 14813 c6 -2 18 -2 25 0 6 3 1 5 -13 5 -14 0 -19 -2 -12 -5z"/>
<path d="M9217 14799 c7 -7 15 -10 18 -7 3 3 -2 9 -12 12 -14 6 -15 5 -6 -5z"/>
<path d="M9201 14774 c0 -11 3 -14 6 -6 3 7 2 16 -1 19 -3 4 -6 -2 -5 -13z"/>
<path d="M9235 14769 c-10 -15 3 -25 16 -12 7 7 7 13 1 17 -6 3 -14 1 -17 -5z"/>
<path d="M9270 14750 c0 -5 5 -10 11 -10 5 0 7 5 4 10 -3 6 -8 10 -11 10 -2 0
-4 -4 -4 -10z"/>
<path d="M5271 14714 c0 -11 3 -14 6 -6 3 7 2 16 -1 19 -3 4 -6 -2 -5 -13z"/>
<path d="M9286 14721 c-4 -5 -2 -20 3 -33 9 -21 9 -20 8 9 -2 36 -3 38 -11 24z"/>
<path d="M9300 14570 c0 -5 5 -10 10 -10 6 0 10 5 10 10 0 6 -4 10 -10 10 -5
0 -10 -4 -10 -10z"/>
<path d="M9304 14240 c0 -85 2 -120 3 -77 2 42 2 112 0 155 -1 42 -3 7 -3 -78z"/>
<path d="M5193 14255 c0 -14 3 -22 8 -19 5 3 9 11 9 19 0 8 -4 16 -9 19 -5 3
-8 -5 -8 -19z"/>
<path d="M5194 13805 c0 -71 1 -99 3 -62 2 37 2 96 0 130 -2 34 -3 4 -3 -68z"/>
<path d="M6530 13860 c0 -5 7 -10 16 -10 8 0 12 5 9 10 -3 6 -10 10 -16 10 -5
0 -9 -4 -9 -10z"/>
<path d="M6358 13833 c7 -3 16 -2 19 1 4 3 -2 6 -13 5 -11 0 -14 -3 -6 -6z"/>
<path d="M6495 13820 c21 -11 40 -18 43 -16 5 6 -54 36 -70 36 -7 0 5 -9 27
-20z"/>
<path d="M7234 13829 c-3 -6 -15 -9 -25 -6 -11 3 -17 1 -13 -4 9 -15 54 -10
54 6 0 18 -6 19 -16 4z"/>
<path d="M7416 13826 c10 -8 21 -12 24 -10 5 6 -21 24 -34 24 -6 0 -1 -6 10
-14z"/>
<path d="M6290 13820 c-13 -9 -13 -11 0 -21 11 -8 7 -9 -17 -4 -21 4 -33 3
-33 -4 0 -6 7 -8 15 -5 19 8 19 -3 1 -22 -8 -8 -23 -11 -33 -8 -13 4 -15 3 -5
-4 13 -9 10 -21 -16 -62 -2 -2 -7 2 -12 10 -5 8 -12 12 -15 8 -3 -3 1 -13 10
-22 9 -9 13 -20 10 -26 -3 -5 -4 -10 -1 -10 3 0 13 17 21 37 18 42 79 103 103
103 13 0 12 3 -3 14 -18 13 -14 13 30 9 59 -7 58 1 0 10 -22 4 -47 2 -55 -3z"/>
<path d="M6439 13822 c11 -8 11 -11 0 -16 -8 -3 -1 -4 14 -1 19 4 26 2 22 -5
-3 -5 2 -10 12 -10 20 0 64 -37 90 -76 14 -22 18 -23 25 -10 11 19 1 56 -14
56 -6 0 -6 -6 2 -15 7 -9 10 -18 7 -22 -4 -3 -16 6 -28 21 -24 31 -82 70 -119
80 -17 5 -21 4 -11 -2z"/>
<path d="M7278 13823 c6 -2 18 -2 25 0 6 3 1 5 -13 5 -14 0 -19 -2 -12 -5z"/>
<path d="M8055 13821 c-4 -7 1 -8 12 -4 13 4 15 3 8 -5 -5 -6 -26 -15 -45 -21
l-35 -11 35 6 c19 3 44 6 55 6 14 -1 16 1 7 7 -8 5 -13 12 -12 17 2 13 -17 17
-25 5z"/>
<path d="M8110 13820 c0 -5 5 -10 11 -10 5 0 7 5 4 10 -3 6 -8 10 -11 10 -2 0
-4 -4 -4 -10z"/>
<path d="M8218 13823 c7 -3 16 -2 19 1 4 3 -2 6 -13 5 -11 0 -14 -3 -6 -6z"/>
<path d="M7340 13816 c0 -2 7 -6 15 -10 8 -3 15 -1 15 4 0 6 -7 10 -15 10 -8
0 -15 -2 -15 -4z"/>
<path d="M8178 13813 c7 -3 16 -2 19 1 4 3 -2 6 -13 5 -11 0 -14 -3 -6 -6z"/>
<path d="M7298 13803 c6 -2 18 -2 25 0 6 3 1 5 -13 5 -14 0 -19 -2 -12 -5z"/>
<path d="M7406 13780 c20 -39 11 -51 -11 -16 -10 14 -23 26 -30 26 -7 0 6 -19
29 -43 22 -23 46 -51 53 -62 9 -16 9 -13 0 13 -6 17 -15 32 -20 32 -5 0 -5 6
1 13 12 15 -4 58 -25 64 -8 3 -7 -6 3 -27z"/>
<path d="M7158 13793 c-10 -2 -18 -9 -18 -14 0 -6 7 -6 18 -1 9 5 24 12 32 15
13 5 13 5 0 5 -8 0 -23 -2 -32 -5z"/>
<path d="M8169 13789 c24 -5 52 -16 63 -26 17 -15 18 -15 13 -1 -8 19 -57 38
-94 37 -17 -1 -11 -4 18 -10z"/>
<path d="M7116 13762 c-3 -6 -23 -8 -43 -6 -29 2 -34 1 -23 -7 11 -8 12 -12 3
-16 -10 -4 -10 -9 -1 -26 7 -12 11 -26 10 -30 -1 -5 2 -6 8 -2 7 4 7 12 0 25
-11 21 -3 53 11 44 6 -3 7 -15 3 -27 -5 -20 -4 -19 12 3 10 14 22 28 28 32 6
4 8 10 4 13 -3 4 -9 2 -12 -3z"/>
<path d="M7980 13760 c-8 -5 -12 -11 -10 -14 3 -2 14 2 24 10 22 15 10 19 -14
4z"/>
<path d="M6162 13740 c0 -14 2 -19 5 -12 2 6 2 18 0 25 -3 6 -5 1 -5 -13z"/>
<path d="M6187 13739 c4 -13 8 -18 11 -10 2 7 -1 18 -6 23 -8 8 -9 4 -5 -13z"/>
<path d="M6620 13734 c0 -14 4 -23 9 -20 5 3 7 15 4 26 -7 28 -13 25 -13 -6z"/>
<path d="M7945 13750 c3 -5 3 -15 -1 -21 -5 -8 -8 -8 -13 0 -4 6 -7 -5 -7 -24
l0 -34 18 30 c20 33 23 59 7 59 -5 0 -7 -4 -4 -10z"/>
<path d="M8265 13749 c-6 -8 -4 -10 5 -4 10 6 12 4 6 -11 -6 -15 -5 -17 5 -6
9 9 10 15 2 23 -8 8 -13 7 -18 -2z"/>
<path d="M8305 13748 c4 -9 2 -19 -4 -23 -15 -9 -14 -22 2 -22 14 0 17 40 4
53 -4 5 -5 1 -2 -8z"/>
<path d="M6602 13684 c-11 -12 -9 -14 13 -14 17 0 25 5 24 18 0 12 -2 13 -6 3
-3 -8 -8 -9 -12 -3 -4 6 -11 5 -19 -4z"/>
<path d="M7501 13664 c0 -11 3 -14 6 -6 3 7 2 16 -1 19 -3 4 -6 -2 -5 -13z"/>
<path d="M5192 13630 c0 -19 2 -27 5 -17 2 9 2 25 0 35 -3 9 -5 1 -5 -18z"/>
<path d="M7046 13628 c-3 -18 -2 -46 2 -63 7 -24 9 -18 9 33 0 34 -1 62 -3 62
-1 0 -4 -15 -8 -32z"/>
<path d="M6619 13623 l-1 -28 -8 25 -8 25 -1 -26 c-1 -14 6 -34 15 -45 15 -18
15 -18 8 5 -3 13 -2 21 3 18 5 -3 7 7 5 24 -5 37 -12 38 -13 2z"/>
<path d="M7480 13634 c0 -11 -5 -25 -12 -32 -9 -9 -9 -12 0 -12 13 0 28 47 18
57 -3 4 -6 -3 -6 -13z"/>
<path d="M7908 13632 c-4 -13 -1 -58 7 -100 7 -43 10 -81 7 -87 -3 -5 2 -4 11
4 18 14 24 37 8 26 -6 -3 -10 3 -10 12 -1 10 -4 52 -8 93 -6 52 -10 68 -15 52z"/>
<path d="M8311 13634 c0 -11 3 -14 6 -6 3 7 2 16 -1 19 -3 4 -6 -2 -5 -13z"/>
<path d="M6161 13624 c0 -11 3 -14 6 -6 3 7 2 16 -1 19 -3 4 -6 -2 -5 -13z"/>
<path d="M6182 13563 c1 -32 -3 -67 -8 -78 -7 -18 -6 -18 8 -5 8 9 18 33 21
55 5 30 4 35 -3 20 -8 -16 -9 -12 -6 17 3 21 1 40 -4 43 -4 3 -8 -21 -8 -52z"/>
<path d="M8316 13578 c-3 -13 -5 -32 -5 -43 1 -11 5 -2 10 19 10 42 6 62 -5
24z"/>
<path d="M7481 13564 c0 -11 3 -14 6 -6 3 7 2 16 -1 19 -3 4 -6 -2 -5 -13z"/>
<path d="M7447 13527 c-22 -51 -70 -107 -94 -107 -15 0 -16 -2 -3 -10 9 -5 19
-5 27 2 7 5 19 8 28 5 8 -4 17 -2 20 3 4 6 -1 10 -9 10 -9 0 -16 5 -16 11 0 6
7 8 16 5 8 -3 13 -2 10 3 -3 5 6 30 20 55 14 25 24 50 22 56 -1 5 -11 -9 -21
-33z"/>
<path d="M6587 13515 c-9 -25 -12 -45 -7 -45 9 0 13 10 24 63 10 42 0 32 -17
-18z"/>
<path d="M7501 13534 c0 -11 3 -14 6 -6 3 7 2 16 -1 19 -3 4 -6 -2 -5 -13z"/>
<path d="M6211 13517 c-1 -10 5 -25 13 -33 21 -20 32 -17 14 4 -9 9 -18 24
-21 32 -4 12 -6 11 -6 -3z"/>
<path d="M6616 13500 c-4 -21 -1 -36 8 -46 12 -11 13 -7 9 29 -7 53 -9 55 -17
17z"/>
<path d="M7060 13522 c0 -8 9 -25 20 -39 11 -15 17 -29 14 -32 -4 -3 -9 0 -11
7 -3 6 -9 12 -15 12 -6 0 -5 -6 2 -15 7 -8 18 -15 24 -14 27 3 34 -3 31 -27
-2 -18 1 -22 8 -15 6 6 18 11 27 11 13 0 13 -1 0 -10 -8 -5 -10 -10 -5 -10 6
0 17 5 25 10 12 7 8 11 -17 16 -18 4 -31 10 -28 14 2 4 -5 16 -17 26 -11 11
-29 33 -39 49 -11 17 -19 24 -19 17z"/>
<path d="M8299 13488 c-1 -7 0 -20 1 -27 1 -11 -1 -12 -12 -4 -10 9 -22 4 -50
-23 -21 -19 -33 -34 -28 -34 6 0 9 -5 8 -11 -2 -6 2 -13 9 -16 8 -3 11 3 8 17
-5 25 33 73 49 62 23 -14 36 -11 27 6 -4 10 -6 23 -4 30 3 6 2 12 -1 12 -3 0
-7 -6 -7 -12z"/>
<path d="M6196 13465 c-3 -8 -1 -15 4 -15 6 0 10 7 10 15 0 8 -2 15 -4 15 -2
0 -6 -7 -10 -15z"/>
<path d="M6528 13445 c-18 -16 -45 -28 -79 -33 -49 -7 -83 -32 -42 -32 15 0
16 2 3 10 -13 8 -13 10 2 10 9 0 19 -6 21 -12 4 -10 8 -10 14 -1 4 6 20 14 35
18 14 4 38 20 54 36 34 36 29 38 -8 4z"/>
<path d="M6272 13436 c15 -14 37 -27 50 -27 16 -1 18 -3 6 -6 -9 -2 -16 -12
-15 -22 1 -13 7 -16 31 -12 l31 6 -30 4 -30 3 35 13 35 12 -42 7 c-24 4 -45
12 -49 17 -3 5 -15 14 -27 20 -18 9 -18 7 5 -15z"/>
<path d="M7455 13450 c3 -5 10 -10 16 -10 5 0 9 5 9 10 0 6 -7 10 -16 10 -8 0
-12 -4 -9 -10z"/>
<path d="M7945 13440 c-8 -13 5 -13 25 0 13 8 13 10 -2 10 -9 0 -20 -4 -23
-10z"/>
<path d="M7950 13405 c0 -8 8 -15 18 -15 9 0 25 -7 35 -15 13 -9 35 -12 70 -9
52 5 78 14 40 14 -11 0 -37 7 -58 16 -21 8 -44 13 -52 10 -8 -3 -23 -1 -34 4
-15 8 -19 7 -19 -5z m80 -9 c0 -2 -7 -6 -15 -10 -8 -3 -15 -1 -15 4 0 6 7 10
15 10 8 0 15 -2 15 -4z m38 -14 c8 -6 2 -9 -18 -9 -20 0 -26 3 -18 9 7 4 15 8
18 8 3 0 11 -4 18 -8z"/>
<path d="M6495 13390 c-8 -13 5 -13 25 0 13 8 13 10 -2 10 -9 0 -20 -4 -23
-10z"/>
<path d="M7208 13393 c7 -3 16 -2 19 1 4 3 -2 6 -13 5 -11 0 -14 -3 -6 -6z"/>
<path d="M7265 13389 c-4 -5 1 -9 10 -9 9 0 14 -3 12 -7 -3 -5 15 -8 40 -9 38
-1 42 1 30 13 -17 17 -84 26 -92 12z m70 -9 c13 -5 14 -9 5 -9 -8 0 -24 4 -35
9 -13 5 -14 9 -5 9 8 0 24 -4 35 -9z"/>
<path d="M8167 13386 c-4 -10 -1 -13 9 -9 15 6 19 23 5 23 -5 0 -11 -7 -14
-14z"/>
<path d="M6271 13381 c-8 -6 -9 -11 -3 -15 6 -3 14 -1 17 5 9 14 2 20 -14 10z"/>
<path d="M7386 13375 c4 -8 10 -15 15 -15 4 0 6 7 3 15 -4 8 -10 15 -15 15 -4
0 -6 -7 -3 -15z"/>
<path d="M7125 13370 c-5 -8 52 -6 60 2 3 2 -9 5 -25 5 -17 0 -33 -3 -35 -7z"/>
<path d="M7220 13370 c8 -5 22 -10 30 -10 13 0 13 1 0 10 -8 5 -22 10 -30 10
-13 0 -13 -1 0 -10z"/>
<path d="M7116 13338 c3 -4 14 -8 25 -8 11 0 18 4 14 9 -3 6 -14 9 -25 8 -10
-1 -16 -5 -14 -9z"/>
<path d="M5191 13314 c0 -11 3 -14 6 -6 3 7 2 16 -1 19 -3 4 -6 -2 -5 -13z"/>
<path d="M9323 13210 c0 -47 2 -66 4 -42 2 23 2 61 0 85 -2 23 -4 4 -4 -43z"/>
<path d="M5180 12783 c0 -12 5 -25 10 -28 13 -8 13 15 0 35 -8 12 -10 11 -10
-7z"/>
<path d="M5210 12700 c0 -5 5 -10 10 -10 6 0 10 5 10 10 0 6 -4 10 -10 10 -5
0 -10 -4 -10 -10z"/>
<path d="M5200 12670 c0 -5 5 -10 10 -10 6 0 10 -12 10 -26 0 -17 4 -23 12
-18 8 5 9 2 5 -9 -7 -20 11 -33 25 -19 6 6 12 23 14 37 2 26 2 26 -17 9 -17
-16 -24 -13 -20 10 2 11 -19 36 -30 36 -5 0 -9 -4 -9 -10z m56 -68 c-17 -16
-18 -16 -5 5 7 12 15 20 18 17 3 -2 -3 -12 -13 -22z"/>
<path d="M9280 12670 c0 -5 5 -10 10 -10 6 0 10 5 10 10 0 6 -4 10 -10 10 -5
0 -10 -4 -10 -10z"/>
<path d="M9287 12633 c-4 -3 -7 -13 -7 -22 1 -13 3 -13 11 2 11 19 8 33 -4 20z"/>
<path d="M9297 12588 c-10 -17 -16 -33 -13 -35 2 -3 12 9 21 27 21 41 15 48
-8 8z"/>
<path d="M5270 12553 c0 -13 71 -66 78 -58 13 13 9 53 -5 48 -15 -6 -17 -23
-3 -23 6 0 10 -5 10 -10 0 -13 -27 0 -57 30 -13 11 -23 17 -23 13z"/>
<path d="M9245 12540 c-3 -5 -1 -10 4 -10 6 0 11 5 11 10 0 6 -2 10 -4 10 -3
0 -8 -4 -11 -10z"/>
<path d="M9215 12510 c-3 -5 -1 -10 4 -10 6 0 11 5 11 10 0 6 -2 10 -4 10 -3
0 -8 -4 -11 -10z"/>
<path d="M5390 12470 c0 -12 30 -25 80 -34 24 -4 29 -3 15 3 l-20 8 20 6 c11
4 2 4 -20 1 -46 -7 -42 5 7 16 l33 8 -32 1 c-17 1 -35 -3 -38 -9 -3 -5 -13
-10 -21 -10 -8 0 -12 5 -9 10 3 6 1 10 -4 10 -6 0 -11 -5 -11 -10z"/>
<path d="M5520 12470 c-13 -8 -13 -10 2 -10 9 0 20 5 23 10 8 13 -5 13 -25 0z"/>
<path d="M6007 12466 c-4 -10 -7 -19 -7 -20 0 -1 10 -3 22 -3 13 -1 18 1 12 5
-6 4 -13 14 -16 21 -3 12 -6 11 -11 -3z"/>
<path d="M6320 12467 c0 -6 -43 -8 -102 -5 -57 2 -92 1 -78 -3 32 -9 148 -11
189 -3 35 7 42 20 11 20 -11 0 -20 -4 -20 -9z"/>
<path d="M7058 12473 c12 -2 32 -2 45 0 12 2 2 4 -23 4 -25 0 -35 -2 -22 -4z"/>
<path d="M7189 12469 c9 -4 76 -8 148 -10 73 -2 124 -1 114 2 -9 4 -76 8 -148
10 -73 2 -124 1 -114 -2z"/>
<path d="M7578 12473 c34 -2 90 -2 125 0 34 2 6 3 -63 3 -69 0 -97 -1 -62 -3z"/>
<path d="M7920 12460 l-85 -6 80 -1 c44 -1 89 2 100 7 11 5 13 8 5 7 -8 0 -53
-4 -100 -7z"/>
<path d="M6342 12449 c-19 -6 -30 -14 -26 -20 4 -8 9 -7 15 2 6 11 55 15 206
20 l198 5 -180 1 c-99 1 -195 -3 -213 -8z"/>
<path d="M5578 11653 c1 -436 -1 -793 -4 -793 -4 0 -55 38 -113 85 -58 47
-110 89 -116 93 -5 4 -77 62 -159 127 -82 66 -208 167 -281 225 -73 58 -253
203 -401 322 -357 288 -345 278 -532 428 -90 72 -168 127 -174 124 -6 -4 -8
-2 -5 3 4 6 1 16 -7 22 -11 9 -15 9 -19 -1 -3 -7 -6 -3 -6 10 -1 12 -6 22 -11
22 -6 0 -50 -26 -98 -57 -126 -82 -311 -271 -379 -387 -148 -252 -180 -503
-102 -797 l20 -76 147 -37 c81 -20 253 -63 382 -97 129 -33 350 -89 490 -125
315 -80 316 -81 336 -107 13 -18 15 -18 10 -3 -4 12 -2 17 6 14 7 -3 63 -17
123 -31 61 -14 273 -66 472 -115 200 -50 361 -87 359 -83 -3 4 1 20 9 36 27
60 72 161 91 205 10 24 28 63 39 85 l20 40 73 5 c39 3 72 4 72 2 0 -2 -11 -28
-25 -58 -14 -30 -25 -58 -25 -62 -1 -4 -9 -25 -20 -47 -11 -22 -19 -43 -20
-48 0 -4 -9 -26 -19 -50 -21 -46 -71 -164 -91 -215 -10 -26 -15 -30 -26 -21
-12 10 -14 -118 -14 -830 0 -598 3 -841 11 -841 6 0 96 23 201 50 105 28 196
50 204 50 12 0 14 275 14 1855 l0 1855 -108 1 c-59 0 -156 4 -217 7 l-110 7 3
-792z"/>
<path d="M6055 12440 c3 -5 8 -10 11 -10 2 0 4 5 4 10 0 6 -5 10 -11 10 -5 0
-7 -4 -4 -10z"/>
<path d="M6100 12441 c24 -9 168 -15 159 -7 -2 2 -44 6 -94 9 -55 4 -80 3 -65
-2z"/>
<path d="M6918 12443 c23 -2 61 -2 85 0 23 2 4 4 -43 4 -47 0 -66 -2 -42 -4z"/>
<path d="M8808 12443 c6 -2 18 -2 25 0 6 3 1 5 -13 5 -14 0 -19 -2 -12 -5z"/>
<path d="M9070 12440 c0 -5 12 -10 28 -9 24 0 25 1 7 9 -27 12 -35 12 -35 0z"/>
<path d="M7853 12433 c31 -2 83 -2 115 0 31 2 5 3 -58 3 -63 0 -89 -1 -57 -3z"/>
<path d="M8060 12416 c0 -2 7 -9 15 -16 13 -11 14 -10 9 4 -5 14 -24 23 -24
12z"/>
<path d="M8664 12080 c0 -257 1 -286 6 -140 3 102 3 248 -1 325 -3 87 -5 18
-5 -185z"/>
<path d="M8151 12374 c0 -11 3 -14 6 -6 3 7 2 16 -1 19 -3 4 -6 -2 -5 -13z"/>
<path d="M8126 12351 c-3 -5 1 -12 10 -15 8 -3 12 -11 8 -17 -4 -8 -3 -9 4 -5
9 5 9 13 2 27 -12 21 -16 23 -24 10z"/>
<path d="M8205 12260 c3 -5 11 -10 16 -10 6 0 7 5 4 10 -3 6 -11 10 -16 10 -6
0 -7 -4 -4 -10z"/>
<path d="M8300 12115 c0 -5 5 -17 10 -25 5 -8 10 -10 10 -5 0 6 -5 17 -10 25
-5 8 -10 11 -10 5z"/>
<path d="M8420 12076 c0 -9 0 -19 -1 -23 0 -4 4 -9 10 -11 14 -5 14 35 1 43
-5 3 -10 -1 -10 -9z"/>
<path d="M8330 12074 c0 -7 27 -34 34 -34 4 0 1 9 -6 20 -12 19 -28 27 -28 14z"/>
<path d="M8370 12069 c0 -5 5 -7 10 -4 6 3 10 8 10 11 0 2 -4 4 -10 4 -5 0
-10 -5 -10 -11z"/>
<path d="M8391 12044 c0 -11 3 -14 6 -6 3 7 2 16 -1 19 -3 4 -6 -2 -5 -13z"/>
<path d="M8450 11980 c0 -5 5 -10 10 -10 6 0 10 5 10 10 0 6 -4 10 -10 10 -5
0 -10 -4 -10 -10z"/>
<path d="M8471 11944 c0 -11 3 -14 6 -6 3 7 2 16 -1 19 -3 4 -6 -2 -5 -13z"/>
<path d="M8447 11919 c7 -7 15 -10 18 -7 3 3 -2 9 -12 12 -14 6 -15 5 -6 -5z"/>
<path d="M10205 11567 c-21 -12 -53 -42 -70 -65 l-30 -44 -3 -1153 c-2 -1094
-1 -1154 15 -1159 10 -2 38 -7 63 -11 84 -12 245 -58 340 -97 52 -21 99 -39
105 -41 5 -1 16 -8 24 -15 8 -8 22 -11 33 -9 10 3 16 2 13 -2 -2 -4 34 -29 80
-54 72 -39 202 -120 241 -149 13 -10 77 79 68 94 -4 7 -2 8 4 4 6 -4 28 19 53
56 24 35 62 89 86 122 24 32 40 63 36 69 -3 5 -1 7 4 4 6 -4 26 18 46 47 20
30 84 121 142 202 58 82 134 188 168 237 34 48 98 138 142 200 44 61 91 129
105 149 14 21 29 36 35 35 5 -2 27 -28 47 -58 21 -30 45 -62 53 -72 8 -9 15
-20 15 -23 0 -14 223 -319 232 -316 5 1 6 -2 3 -8 -4 -6 0 -19 8 -28 16 -18
156 -219 280 -402 43 -63 107 -155 142 -205 35 -49 81 -115 102 -145 221 -317
321 -460 339 -483 l22 -27 716 0 c624 0 721 2 754 15 47 20 79 50 103 98 19
36 19 76 19 1567 0 1054 -3 1538 -11 1557 -17 46 -58 92 -99 113 -39 20 -62
20 -2212 20 l-2173 0 -40 -23z m933 -821 c167 -45 272 -180 272 -350 0 -107
-39 -205 -109 -270 -16 -16 -28 -34 -24 -39 3 -6 1 -7 -5 -4 -5 4 -34 -5 -64
-20 -48 -25 -63 -28 -158 -28 -95 0 -111 3 -162 28 -75 37 -134 98 -172 177
-28 58 -31 74 -30 155 1 108 25 175 90 241 23 24 41 45 40 46 0 2 1 2 3 1 2
-1 16 6 31 17 74 53 191 72 288 46z m1146 -1252 c3 -8 2 -12 -4 -9 -6 3 -10
10 -10 16 0 14 7 11 14 -7z"/>
<path d="M4374 10505 c-9 -22 2 -32 46 -39 22 -3 63 -11 90 -17 48 -10 50 -12
50 -44 0 -21 9 -44 25 -64 42 -50 151 -79 163 -44 2 7 -7 17 -20 22 -114 44
-133 63 -122 120 3 16 2 31 -4 35 -7 4 -205 46 -220 46 -1 0 -5 -7 -8 -15z"/>
<path d="M4736 10468 c3 -5 10 -6 15 -3 13 9 11 12 -6 12 -8 0 -12 -4 -9 -9z"/>
<path d="M4350 10361 c0 -16 15 -23 91 -40 103 -24 125 -25 135 -10 11 19 -11
30 -97 50 -109 24 -129 24 -129 0z"/>
<path d="M5583 10348 c1 -15 6 -23 11 -18 4 4 4 16 -2 26 -9 16 -10 14 -9 -8z"/>
<path d="M4272 10238 c3 -20 14 -25 105 -42 57 -11 106 -16 110 -12 19 19 -18
41 -98 58 -114 23 -121 23 -117 -4z"/>
<path d="M7440 8400 c0 -5 3 -9 8 -8 4 1 17 -4 29 -12 20 -13 20 -15 5 -27
-10 -7 -12 -12 -5 -13 6 0 15 5 18 10 10 16 28 12 22 -4 -4 -10 -1 -13 9 -9 8
3 14 -1 14 -11 0 -17 15 -22 24 -7 3 4 -21 27 -53 50 -62 43 -71 47 -71 31z"/>
<path d="M7450 8370 c0 -5 5 -10 11 -10 5 0 7 5 4 10 -3 6 -8 10 -11 10 -2 0
-4 -4 -4 -10z"/>
<path d="M7382 8297 c-34 -55 -38 -67 -19 -49 14 13 31 37 38 54 8 19 17 27
27 23 11 -4 12 -2 4 8 -9 10 -8 17 0 25 7 7 8 12 3 12 -6 -1 -29 -33 -53 -73z"/>
<path d="M7596 8292 c-3 -5 -1 -14 3 -20 6 -10 10 -10 20 1 9 12 8 16 -3 20
-9 4 -17 3 -20 -1z"/>
<path d="M7460 8275 c-8 -45 -8 -47 2 -37 5 5 8 18 5 28 -3 11 -6 15 -7 9z"/>
<path d="M7620 8252 c-8 -9 -14 -20 -12 -25 1 -4 -5 -15 -13 -24 -9 -8 -13
-18 -10 -21 7 -8 19 6 44 51 21 38 17 49 -9 19z"/>
<path d="M7325 8200 c3 -5 8 -10 11 -10 2 0 4 5 4 10 0 6 -5 10 -11 10 -5 0
-7 -4 -4 -10z"/>
<path d="M7346 8184 c-3 -8 -10 -13 -15 -10 -5 3 -14 -1 -21 -9 -15 -18 -1
-39 42 -61 15 -8 28 -22 28 -32 0 -14 2 -15 10 -2 6 10 4 20 -7 32 -9 10 -18
16 -21 13 -3 -3 -11 0 -18 5 -12 11 -8 53 5 46 4 -3 8 4 8 15 2 23 -3 25 -11
3z m-19 -29 c0 -8 -4 -15 -9 -15 -10 0 -11 14 -1 23 9 10 10 9 10 -8z"/>
<path d="M7523 8155 c0 -8 7 -11 16 -7 13 4 12 1 -3 -16 -26 -30 -5 -28 23 2
14 15 19 26 12 31 -6 3 -11 1 -11 -5 0 -7 -6 -8 -18 -1 -14 7 -19 6 -19 -4z"/>
<path d="M7366 8145 c-16 -12 -17 -15 -4 -15 9 0 25 -3 35 -6 17 -5 17 -5 0 6
-9 6 -15 15 -12 21 8 12 3 11 -19 -6z"/>
<path d="M7408 8153 c7 -3 16 -2 19 1 4 3 -2 6 -13 5 -11 0 -14 -3 -6 -6z"/>
<path d="M7416 8101 c-4 -7 -5 -15 -2 -18 9 -9 19 4 14 18 -4 11 -6 11 -12 0z"/>
<path d="M7513 8045 c0 -22 2 -30 4 -17 2 12 2 30 0 40 -3 9 -5 -1 -4 -23z"/>
<path d="M7400 8036 c0 -14 3 -27 8 -29 4 -3 7 8 7 24 0 16 -3 29 -7 29 -5 0
-8 -11 -8 -24z"/>
<path d="M7365 8040 c3 -5 8 -10 11 -10 2 0 4 5 4 10 0 6 -5 10 -11 10 -5 0
-7 -4 -4 -10z"/>
<path d="M7431 8034 c0 -11 3 -14 6 -6 3 7 2 16 -1 19 -3 4 -6 -2 -5 -13z"/>
<path d="M7351 7964 c0 -11 3 -14 6 -6 3 7 2 16 -1 19 -3 4 -6 -2 -5 -13z"/>
<path d="M7342 7920 c0 -14 2 -19 5 -12 2 6 2 18 0 25 -3 6 -5 1 -5 -13z"/>
<path d="M7522 7895 c0 -16 2 -22 5 -12 2 9 2 23 0 30 -3 6 -5 -1 -5 -18z"/>
<path d="M7331 7880 c0 -8 4 -22 9 -30 12 -18 12 -2 0 25 -6 13 -9 15 -9 5z"/>
<path d="M11970 7866 c0 -3 22 -31 48 -63 118 -141 402 -547 494 -706 l27 -46
65 19 c36 10 69 21 74 24 5 3 19 7 33 10 13 3 56 12 94 20 94 21 304 46 387
46 l68 0 0 -1043 c0 -574 2 -1046 5 -1048 2 -3 37 0 77 8 159 28 375 64 408
68 37 5 180 31 218 40 19 5 22 12 22 50 0 34 -4 45 -16 45 -8 0 -97 -14 -197
-31 -100 -17 -200 -33 -222 -36 l-40 -5 71 68 c39 38 146 141 238 228 l166
159 0 62 0 61 73 69 c39 38 171 163 292 279 225 216 358 343 455 434 l55 52
-45 45 c-214 214 -553 427 -787 496 l-43 12 0 344 0 343 -1010 0 c-555 0
-1010 -2 -1010 -4z"/>
<path d="M7346 7815 c-3 -9 -5 -40 -5 -68 l2 -52 7 65 c8 67 7 82 -4 55z"/>
<path d="M7526 7754 c-4 -14 -5 -28 -3 -31 3 -2 8 8 11 23 4 14 5 28 3 31 -3
2 -8 -8 -11 -23z"/>
<path d="M7314 7762 c4 -6 2 -21 -5 -33 -6 -12 -7 -19 -1 -15 6 3 13 0 15 -6
3 -7 6 1 6 19 1 17 -4 35 -11 39 -7 4 -8 3 -4 -4z"/>
<path d="M7306 7683 c6 -4 14 -15 17 -23 5 -11 6 -9 4 4 -1 11 -9 21 -17 23
-10 3 -11 2 -4 -4z"/>
<path d="M7344 7676 c-3 -8 -4 -23 -2 -33 3 -11 6 -6 9 15 6 34 2 42 -7 18z"/>
<path d="M7527 7669 c4 -13 8 -18 11 -10 2 7 -1 18 -6 23 -8 8 -9 4 -5 -13z"/>
<path d="M7296 7643 c-4 -9 -2 -21 4 -27 7 -7 10 -2 10 17 0 31 -5 34 -14 10z"/>
<path d="M7527 7595 c12 -61 22 -72 22 -27 1 24 -3 41 -8 38 -5 -4 -12 0 -15
6 -3 7 -2 0 1 -17z"/>
<path d="M7281 7594 c0 -11 3 -14 6 -6 3 7 2 16 -1 19 -3 4 -6 -2 -5 -13z"/>
<path d="M7300 7493 c0 -22 2 -25 10 -13 13 20 13 40 0 40 -5 0 -10 -12 -10
-27z"/>
<path d="M7241 7383 c-6 -21 -11 -45 -10 -53 0 -8 7 7 14 35 8 27 12 51 10 53
-2 2 -8 -13 -14 -35z"/>
<path d="M7345 7394 c0 -13 3 -24 8 -24 4 0 7 9 7 19 0 11 -3 22 -7 24 -5 3
-8 -6 -8 -19z"/>
<path d="M7282 7385 c0 -16 2 -22 5 -12 2 9 2 23 0 30 -3 6 -5 -1 -5 -18z"/>
<path d="M7540 7371 c0 -6 4 -13 10 -16 6 -3 7 1 4 9 -7 18 -14 21 -14 7z"/>
<path d="M7553 7255 c0 -33 2 -45 4 -27 2 18 2 45 0 60 -2 15 -4 0 -4 -33z"/>
<path d="M7220 7279 c0 -11 4 -18 10 -14 5 3 7 12 3 20 -7 21 -13 19 -13 -6z"/>
<path d="M7265 7263 c-4 -16 -8 -36 -10 -45 -2 -10 2 -18 8 -18 7 0 13 19 14
45 2 51 -4 59 -12 18z"/>
<path d="M7533 7220 c0 -36 2 -50 4 -32 2 17 2 47 0 65 -2 17 -4 3 -4 -33z"/>
<path d="M7241 7244 c0 -11 3 -14 6 -6 3 7 2 16 -1 19 -3 4 -6 -2 -5 -13z"/>
<path d="M7210 7235 c0 -5 5 -17 10 -25 5 -8 10 -10 10 -5 0 6 -5 17 -10 25
-5 8 -10 11 -10 5z"/>
<path d="M7202 7180 c0 -14 2 -19 5 -12 2 6 2 18 0 25 -3 6 -5 1 -5 -13z"/>
<path d="M7552 7160 c0 -14 2 -19 5 -12 2 6 2 18 0 25 -3 6 -5 1 -5 -13z"/>
<path d="M7185 7091 c-3 -10 -2 -26 1 -36 5 -12 4 -16 -3 -12 -7 5 -9 0 -6
-13 8 -30 14 -18 18 34 3 49 0 58 -10 27z"/>
<path d="M7161 6974 c0 -11 3 -14 6 -6 3 7 2 16 -1 19 -3 4 -6 -2 -5 -13z"/>
<path d="M7184 6928 c1 -38 5 -63 10 -58 5 5 4 33 -1 67 l-10 58 1 -67z"/>
<path d="M7535 6970 c-3 -5 -2 -10 4 -10 6 0 12 -35 14 -82 l3 -83 2 93 c2 84
-6 110 -23 82z"/>
<path d="M10533 6939 c140 -330 368 -940 478 -1277 44 -134 66 -188 70 -175 4
10 19 55 33 101 76 244 201 475 372 689 l74 92 -15 34 c-14 33 -39 48 -402
233 -214 108 -439 224 -502 256 -63 33 -111 54 -108 47z"/>
<path d="M7161 6910 c-2 -50 -12 -81 -23 -74 -6 4 -8 -2 -3 -15 4 -12 2 -21
-4 -21 -6 0 -11 -8 -11 -17 0 -15 2 -15 14 2 21 31 38 97 33 130 -4 29 -4 29
-6 -5z"/>
<path d="M7180 6820 c0 -11 2 -20 4 -20 2 0 6 9 9 20 3 11 1 20 -4 20 -5 0 -9
-9 -9 -20z"/>
<path d="M7541 6774 c0 -11 3 -14 6 -6 3 7 2 16 -1 19 -3 4 -6 -2 -5 -13z"/>
<path d="M7546 6723 c-6 -14 -5 -15 5 -6 7 7 10 15 7 18 -3 3 -9 -2 -12 -12z"/>
<path d="M6363 6722 c-10 -6 -13 -90 -15 -343 l-3 -334 -167 -3 -168 -2 0 320
0 320 -22 0 c-31 0 -359 -30 -385 -36 l-23 -4 -2 -298 -3 -297 -650 -5 c-610
-5 -653 -6 -695 -24 -25 -11 -52 -25 -61 -33 -8 -7 -20 -13 -26 -13 -6 0 -34
-24 -63 -52 -62 -62 -105 -147 -120 -239 -14 -88 -13 -1156 1 -1234 18 -97 53
-162 127 -234 47 -46 86 -74 127 -91 l60 -25 648 -3 c499 -2 649 -5 652 -15 3
-7 6 -511 7 -1122 l3 -1110 27 -55 c35 -71 97 -133 167 -168 l56 -27 3895 0
3895 0 45 21 c54 26 112 73 104 85 -3 5 1 6 9 3 9 -3 22 4 31 18 9 12 16 18
16 13 0 -5 17 7 38 26 20 20 89 78 152 129 63 51 120 97 125 102 6 5 -12 -1
-40 -14 l-50 -23 -3880 0 c-3692 0 -3882 1 -3931 18 -66 23 -125 67 -168 125
-69 94 -66 55 -64 1072 l3 915 165 0 165 0 5 -750 5 -750 25 -50 c36 -73 114
-147 185 -176 l60 -24 3545 0 3545 0 67 32 c79 37 137 94 176 172 26 54 27 62
30 250 3 184 3 193 -15 186 -243 -98 -452 -147 -693 -164 -458 -33 -920 87
-1300 337 -232 152 -437 351 -582 563 -44 64 -45 68 -51 165 -12 180 -57 386
-119 547 -20 54 -35 77 -46 77 -9 0 -107 -18 -217 -39 -363 -71 -830 -134
-1205 -161 -253 -18 -680 -31 -840 -25 -85 3 -216 7 -290 10 -315 11 -682 49
-993 102 l-99 17 -56 118 c-41 88 -60 118 -74 118 -10 0 -18 -6 -18 -12 -1 -7
-7 -2 -15 12 l-14 25 3 -31 c2 -26 -2 -35 -25 -48 -16 -10 -29 -22 -29 -27 0
-5 -7 -9 -16 -7 -10 2 -19 -4 -21 -12 -4 -13 -3 -13 6 0 6 8 11 10 11 4 0 -17
-48 -46 -62 -38 -7 5 -9 2 -6 -7 6 -16 -9 -20 -71 -20 -33 0 -33 -1 -13 -15
19 -13 24 -13 47 2 14 9 25 12 25 8 0 -12 -73 -70 -83 -66 -5 1 -6 -1 -3 -6 8
-13 -32 -42 -48 -36 -8 3 -17 0 -22 -7 -5 -9 -2 -10 9 -6 10 3 17 2 17 -3 0
-6 -4 -10 -9 -10 -5 0 -41 -30 -80 -66 -40 -37 -75 -64 -79 -60 -3 4 0 12 8
17 13 9 13 10 0 6 -8 -2 -15 -10 -15 -18 0 -8 -4 -20 -9 -28 -7 -11 -10 -11
-17 0 -6 10 -9 8 -9 -8 0 -12 -5 -25 -12 -29 -7 -4 -8 -3 -4 4 4 8 2 10 -8 6
-8 -3 -13 -13 -10 -22 2 -9 -3 -1 -13 18 -9 19 -15 42 -14 52 1 9 -3 19 -8 23
-7 4 -9 -1 -5 -12 5 -14 4 -15 -4 -4 -7 9 -7 23 -1 39 8 20 7 23 -6 18 -10 -3
-15 1 -15 13 0 11 -16 49 -36 86 -20 37 -37 80 -38 96 -1 16 -6 30 -11 31 -15
4 -56 91 -52 110 3 9 -1 19 -9 22 -8 3 -14 19 -14 38 0 25 3 29 10 18 7 -11
10 -4 10 28 0 23 5 42 10 42 6 0 10 10 11 23 0 12 7 38 14 57 11 29 14 31 14
12 1 -14 5 -20 12 -17 6 4 7 19 4 36 -4 16 -2 43 4 61 5 18 20 67 33 108 12
41 28 78 34 82 6 4 9 19 6 34 -4 22 5 66 26 124 3 8 7 26 9 40 5 42 27 105 38
112 5 4 11 27 11 50 1 24 7 63 13 88 7 25 16 68 21 95 4 28 12 59 16 69 5 14
4 17 -4 12 -8 -5 -28 28 -61 96 -50 106 -112 235 -314 651 -117 240 -126 253
-164 229z m50 -1096 c18 -18 11 -66 -11 -83 -24 -20 -2020 -19 -2047 1 -21 15
-24 74 -3 87 7 5 471 9 1030 9 873 0 1019 -2 1031 -14z m3 -370 c13 -22 14
-29 2 -53 l-13 -28 -1016 -3 c-1099 -2 -1051 -5 -1051 51 0 61 -71 57 1043 57
l1019 0 16 -24z m-8 -348 c22 -29 23 -57 3 -77 -21 -21 -26 -21 -1036 -21
l-1015 0 -15 24 c-15 23 -13 47 8 74 7 9 225 12 1027 12 802 0 1020 -3 1028
-12z m-644 -364 c19 -18 21 -65 4 -82 -9 -9 -179 -12 -704 -12 -381 0 -699 3
-708 6 -23 9 -22 80 2 93 11 7 256 10 704 11 611 0 688 -2 702 -16z"/>
<path d="M7140 6679 c0 -24 4 -38 10 -34 6 3 10 22 10 41 0 19 -4 34 -10 34
-5 0 -10 -18 -10 -41z"/>
<path d="M7101 6674 c0 -11 3 -14 6 -6 3 7 2 16 -1 19 -3 4 -6 -2 -5 -13z"/>
<path d="M12770 6661 c0 -6 4 -13 10 -16 6 -3 7 1 4 9 -7 18 -14 21 -14 7z"/>
<path d="M7097 6633 c3 -7 6 -13 8 -13 2 0 5 6 8 13 3 8 -1 14 -8 14 -7 0 -11
-6 -8 -14z"/>
<path d="M7102 6585 c0 -16 2 -22 5 -12 2 9 2 23 0 30 -3 6 -5 -1 -5 -18z"/>
<path d="M7123 6578 c-2 -16 1 -18 10 -9 7 7 8 14 1 21 -6 6 -10 2 -11 -12z"/>
<path d="M7072 6518 c-17 -67 -23 -107 -13 -83 12 29 32 117 28 122 -2 2 -9
-16 -15 -39z"/>
<path d="M7530 6556 c0 -2 7 -6 15 -10 8 -3 15 -1 15 4 0 6 -7 10 -15 10 -8 0
-15 -2 -15 -4z"/>
<path d="M7097 6519 c-4 -13 -4 -42 -2 -64 4 -30 3 -35 -4 -20 -11 22 -15 6
-5 -19 5 -14 9 -13 25 5 20 24 24 34 10 25 -9 -6 -21 27 -20 54 0 10 3 8 9 -5
11 -25 12 2 1 29 -7 18 -8 18 -14 -5z"/>
<path d="M7542 6465 c0 -11 4 -33 8 -50 l8 -30 0 30 c0 17 -3 39 -8 50 l-9 20
1 -20z"/>
<path d="M7042 6380 c0 -19 2 -27 5 -17 2 9 2 25 0 35 -3 9 -5 1 -5 -18z"/>
<path d="M7527 6350 c-4 -14 -6 -34 -6 -45 l0 -20 9 20 c8 18 9 18 10 -5 1
-14 4 -20 6 -14 2 6 1 28 -4 50 -7 36 -9 37 -15 14z"/>
<path d="M7522 6245 c0 -16 2 -22 5 -12 2 9 2 23 0 30 -3 6 -5 -1 -5 -18z"/>
<path d="M11566 6253 c-6 -14 -5 -15 5 -6 7 7 10 15 7 18 -3 3 -9 -2 -12 -12z"/>
<path d="M7019 6225 c17 -54 21 -61 16 -25 -3 19 -10 39 -15 44 -7 7 -7 1 -1
-19z"/>
<path d="M7543 6195 c0 -27 2 -38 4 -22 2 15 2 37 0 50 -2 12 -4 0 -4 -28z"/>
<path d="M7011 6172 c-1 -7 -4 -11 -8 -9 -5 3 -9 -6 -9 -20 -2 -24 -2 -24 13
-4 8 12 12 27 10 34 -4 9 -6 9 -6 -1z"/>
<path d="M7521 6154 c0 -11 3 -14 6 -6 3 7 2 16 -1 19 -3 4 -6 -2 -5 -13z"/>
<path d="M7011 6104 c0 -11 3 -14 6 -6 3 7 2 16 -1 19 -3 4 -6 -2 -5 -13z"/>
<path d="M7530 6090 c0 -19 3 -21 12 -12 9 9 9 15 0 24 -9 9 -12 7 -12 -12z"/>
<path d="M6971 6053 c-6 -21 -11 -47 -10 -58 0 -11 7 1 14 26 7 26 15 52 19
58 4 6 3 11 -3 11 -6 0 -15 -17 -20 -37z"/>
<path d="M7026 6082 c-3 -5 -1 -22 4 -38 8 -28 8 -28 7 8 -2 40 -3 43 -11 30z"/>
<path d="M7000 6049 c0 -13 5 -31 10 -39 7 -11 8 -5 4 20 -8 43 -14 51 -14 19z"/>
<path d="M6951 5954 c0 -11 3 -14 6 -6 3 7 2 16 -1 19 -3 4 -6 -2 -5 -13z"/>
<path d="M7531 5923 c0 -12 -4 -30 -7 -40 -5 -14 -4 -15 5 -7 7 6 11 24 8 40
-3 21 -4 23 -6 7z"/>
<path d="M6931 5874 c0 -11 3 -14 6 -6 3 7 2 16 -1 19 -3 4 -6 -2 -5 -13z"/>
<path d="M6926 5837 c3 -10 9 -15 12 -12 3 3 0 11 -7 18 -10 9 -11 8 -5 -6z"/>
<path d="M7521 5834 c0 -11 3 -14 6 -6 3 7 2 16 -1 19 -3 4 -6 -2 -5 -13z"/>
<path d="M6914 5799 c-3 -6 -1 -16 5 -22 8 -8 11 -5 11 11 0 24 -5 28 -16 11z"/>
<path d="M6940 5789 c0 -11 5 -17 10 -14 6 3 10 13 10 21 0 8 -4 14 -10 14 -5
0 -10 -9 -10 -21z"/>
<path d="M7521 5794 c0 -11 3 -14 6 -6 3 7 2 16 -1 19 -3 4 -6 -2 -5 -13z"/>
<path d="M6953 5725 c1 -21 4 -30 9 -22 11 17 10 57 -1 57 -5 0 -9 -16 -8 -35z"/>
<path d="M7518 5740 c-7 -24 -3 -38 8 -28 3 4 4 17 2 30 l-3 23 -7 -25z"/>
<path d="M7032 5725 c0 -16 2 -22 5 -12 2 9 2 23 0 30 -3 6 -5 -1 -5 -18z"/>
<path d="M6932 5705 c0 -16 2 -22 5 -12 2 9 2 23 0 30 -3 6 -5 -1 -5 -18z"/>
<path d="M7511 5660 c-1 -25 -7 -65 -14 -90 -10 -36 -16 -45 -33 -44 -17 1
-20 -3 -16 -20 5 -18 7 -18 10 -3 2 9 8 17 13 17 5 0 9 -8 10 -17 0 -10 9 8
20 40 13 39 19 77 16 110 l-3 52 -3 -45z"/>
<path d="M7441 5584 c0 -11 3 -14 6 -6 3 7 2 16 -1 19 -3 4 -6 -2 -5 -13z"/>
<path d="M7500 5489 c0 -12 -8 -23 -20 -26 -19 -5 -37 -39 -26 -50 3 -4 6 1 6
11 0 13 6 15 28 11 22 -4 24 -4 7 4 -17 8 -18 10 -2 10 12 1 17 9 17 31 0 17
-2 30 -5 30 -3 0 -5 -9 -5 -21z"/>
<path d="M7477 5403 c-3 -5 -7 -24 -10 -43 l-6 -35 12 38 c7 21 16 35 20 31 4
-4 7 -2 7 4 0 13 -16 16 -23 5z"/>
<path d="M7487 5350 c-4 -14 -6 -38 -6 -55 1 -24 3 -21 10 15 10 49 7 80 -4
40z"/>
<path d="M7442 5340 c0 -14 2 -19 5 -12 2 6 2 18 0 25 -3 6 -5 1 -5 -13z"/>
<path d="M6841 5294 c0 -11 3 -14 6 -6 3 7 2 16 -1 19 -3 4 -6 -2 -5 -13z"/>
<path d="M7450 5285 c-11 -13 -10 -14 4 -9 9 3 16 10 16 15 0 13 -6 11 -20 -6z"/>
<path d="M6816 5224 c-3 -9 -6 -30 -6 -47 l1 -32 14 25 c16 29 19 56 6 64 -5
3 -12 -1 -15 -10z"/>
<path d="M7481 5224 c0 -11 3 -14 6 -6 3 7 2 16 -1 19 -3 4 -6 -2 -5 -13z"/>
<path d="M14378 5223 c7 -3 16 -2 19 1 4 3 -2 6 -13 5 -11 0 -14 -3 -6 -6z"/>
<path d="M7460 5199 c0 -11 4 -18 10 -14 5 3 7 12 3 20 -7 21 -13 19 -13 -6z"/>
<path d="M6786 5104 c-9 -23 -7 -52 3 -58 5 -3 11 10 13 30 4 37 -6 55 -16 28z"/>
<path d="M7471 5104 c0 -11 3 -14 6 -6 3 7 2 16 -1 19 -3 4 -6 -2 -5 -13z"/>
<path d="M6867 5063 c-11 -10 -8 -43 3 -43 6 0 10 11 10 25 0 26 -2 29 -13 18z"/>
<path d="M7463 5035 c0 -22 2 -30 4 -17 2 12 2 30 0 40 -3 9 -5 -1 -4 -23z"/>
<path d="M6807 4985 c-4 -9 -1 -18 9 -22 22 -8 30 5 12 23 -14 14 -16 14 -21
-1z"/>
<path d="M7442 4980 c0 -14 2 -19 5 -12 2 6 2 18 0 25 -3 6 -5 1 -5 -13z"/>
<path d="M7360 4974 c0 -8 5 -12 10 -9 6 4 8 11 5 16 -9 14 -15 11 -15 -7z"/>
<path d="M11226 4957 c3 -10 9 -15 12 -12 3 3 0 11 -7 18 -10 9 -11 8 -5 -6z"/>
<path d="M7440 4928 c0 -19 2 -20 10 -8 13 19 13 30 0 30 -5 0 -10 -10 -10
-22z"/>
<path d="M6700 4790 c0 -5 5 -10 10 -10 6 0 10 5 10 10 0 6 -4 10 -10 10 -5 0
-10 -4 -10 -10z"/>
<path d="M7430 4758 c-3 -26 -1 -43 3 -39 5 5 7 26 5 47 l-3 39 -5 -47z"/>
<path d="M6660 4746 c0 -8 6 -16 14 -19 10 -4 12 0 9 14 -6 22 -23 26 -23 5z"/>
<path d="M7383 4680 c0 -25 2 -35 4 -22 2 12 2 32 0 45 -2 12 -4 2 -4 -23z"/>
<path d="M7401 4693 c-1 -17 4 -35 9 -38 11 -7 11 9 0 45 -8 24 -8 24 -9 -7z"/>
<path d="M6677 4664 c-8 -8 1 -24 14 -24 5 0 9 7 9 15 0 15 -12 20 -23 9z"/>
<path d="M7288 4633 c7 -3 16 -2 19 1 4 3 -2 6 -13 5 -11 0 -14 -3 -6 -6z"/>
<path d="M7285 4600 c-3 -5 1 -10 9 -10 8 0 18 5 21 10 3 6 -1 10 -9 10 -8 0
-18 -4 -21 -10z"/>
<path d="M7210 4589 c0 -5 5 -7 10 -4 6 3 10 8 10 11 0 2 -4 4 -10 4 -5 0 -10
-5 -10 -11z"/>
<path d="M6820 4464 c0 -17 22 -14 28 4 2 7 -3 12 -12 12 -9 0 -16 -7 -16 -16z"/>
<path d="M6752 4434 c1 -9 9 -19 16 -22 9 -3 13 2 10 14 -1 9 -9 19 -16 22 -9
3 -13 -2 -10 -14z"/>
<path d="M7073 4425 c0 -8 7 -15 15 -15 7 0 12 5 10 12 -6 18 -25 21 -25 3z"/>
<path d="M6864 4389 c-3 -6 -1 -16 5 -22 8 -8 11 -5 11 11 0 24 -5 28 -16 11z"/>
<path d="M7045 4389 c-11 -16 -1 -19 13 -3 7 8 8 14 3 14 -5 0 -13 -5 -16 -11z"/>
<path d="M6795 4330 c3 -5 10 -10 16 -10 5 0 9 5 9 10 0 6 -7 10 -16 10 -8 0
-12 -4 -9 -10z"/>
<path d="M6990 4310 c-8 -5 -12 -12 -9 -15 4 -3 12 1 19 10 14 17 11 19 -10 5z"/>
<path d="M6838 4266 c-4 -17 -1 -23 9 -19 15 6 18 29 4 37 -5 3 -11 -5 -13
-18z"/>
<path d="M6910 4280 c0 -5 5 -10 11 -10 5 0 7 5 4 10 -3 6 -8 10 -11 10 -2 0
-4 -4 -4 -10z"/>
<path d="M6842 4210 c-18 -29 -15 -38 4 -12 9 13 14 25 12 27 -2 2 -9 -5 -16
-15z"/>
<path d="M14835 3750 c-4 -6 -11 -7 -17 -4 -7 4 -8 2 -4 -5 6 -9 11 -9 22 0
14 11 18 19 10 19 -3 0 -8 -5 -11 -10z"/>
<path d="M11653 3735 c0 -8 4 -12 9 -9 5 3 6 10 3 15 -9 13 -12 11 -12 -6z"/>
<path d="M11787 3580 c7 -8 20 -15 29 -16 9 -1 13 1 9 4 -4 4 -10 7 -13 7 -4
0 -14 4 -22 9 -12 7 -13 6 -3 -4z"/>
<path d="M11890 3485 c13 -14 26 -25 28 -25 3 0 -5 11 -18 25 -13 14 -26 25
-28 25 -3 0 5 -11 18 -25z"/>
</g>
</svg>
